<svg width="128" height="128"  t="1545229057405" class="icon" style="" viewBox="0 0 1024 1024" version="1.1" xmlns="http://www.w3.org/2000/svg" p-id="1160" xmlns:xlink="http://www.w3.org/1999/xlink" width="200" height="200"><defs><style type="text/css"></style></defs><path d="M884.658442 86.633103c-12.81691-5.681396-24.299429 9.842159-33.175587 16.622586-10.444886 7.977695-21.493523 15.158235-33.07121 21.385053-23.361057 12.564154-48.75747 21.266349-74.910107 25.677822-51.092655 8.619308-104.392582 0.520863-150.615323-22.903639-11.67797-5.91778-22.864754-12.792351-33.453926-20.487613-8.683776-6.310729-20.590967-21.590737-31.91078-21.590737-11.036357 0-23.294542 15.328104-31.91078 21.590737-11.398608 8.283664-23.482831 15.587-36.128849 21.803585-46.476521 22.847357-99.843986 30.337959-150.812821 21.11183-28.108175-5.087878-55.247278-15.181771-79.884398-29.625738-13.362332-7.833409-25.083282-17.213034-37.225833-26.718525-10.012028-7.837502-30.311353-12.307304-30.311353 7.157004L161.247474 590.283947c0 73.262584 55.910381 134.99046 108.501156 179.442882 56.534598 47.786353 122.145921 86.829578 190.386118 115.421776 19.412119 8.133238 41.270962 18.029632 62.553685 19.885909 17.202801 1.500167 35.120892-5.688559 50.965765-11.497868 66.973344-24.555256 131.058918-61.463864 187.689706-104.619756 61.518099-46.879704 132.450614-115.122971 132.450614-198.633966L893.794519 100.655468C893.793496 94.591355 890.212948 89.085968 884.658442 86.633103 879.122355 84.179214 890.212948 89.085968 884.658442 86.633103zM863.154685 590.283947c0 67.727521-56.646138 123.794467-105.720833 163.075099-52.761668 42.231847-112.746854 76.914764-174.871773 103.430674-15.675004 6.690376-34.614355 16.449647-52.001351 17.688871-13.767562 0.981351-28.596292-5.933129-41.141002-10.774391-60.032258-23.165606-117.760031-55.680137-169.710216-93.498464-56.724932-41.293475-127.823224-103.105263-127.823224-179.921789L191.886285 132.770909c101.163027 72.568782 238.35155 68.658729 335.6342-11.828396 97.273441 80.488149 234.481406 84.437088 335.6342 11.808954L863.154685 590.283947 863.154685 590.283947zM612.17656 302.583456 442.863387 302.583456l0 108.114346L334.768483 410.697803l0 169.313174 108.094904 0 0 108.094904 169.313174 0L612.17656 580.010977l108.094904 0L720.271464 410.697803 612.17656 410.697803 612.17656 302.583456zM689.632653 441.336614 689.632653 549.372166 581.537749 549.372166l0 108.094904L473.503221 657.467069 473.503221 549.372166 365.408317 549.372166 365.408317 441.336614l108.094904 0L473.503221 333.222267l108.034529 0 0 108.114346L689.632653 441.336614z" p-id="1161"></path></svg>
