<?xml version="1.0" standalone="no"?><!DOCTYPE svg PUBLIC "-//W3C//DTD SVG 1.1//EN" "http://www.w3.org/Graphics/SVG/1.1/DTD/svg11.dtd"><svg t="1545229569800" class="icon" style="" viewBox="0 0 1024 1024" version="1.1" xmlns="http://www.w3.org/2000/svg" p-id="3478" xmlns:xlink="http://www.w3.org/1999/xlink" width="200" height="200"><defs><style type="text/css"></style></defs><path d="M906.666667 266.666667h-85.333334v85.333333a32 32 0 0 1-64 0v-85.333333h-85.333333a32 32 0 0 1 0-64h85.333333v-85.333334a32 32 0 0 1 64 0v85.333334h85.333334a32 32 0 0 1 0 64zM512 192h-21.333333a341.333333 341.333333 0 1 0 341.333333 341.333333c0-7.210667-0.64-14.250667-1.066667-21.333333a33.578667 33.578667 0 0 1 33.066667-32A35.712 35.712 0 0 1 896 512v21.333333A405.333333 405.333333 0 1 1 490.666667 128h21.333333a33.6 33.6 0 0 1 32 32A32 32 0 0 1 512 192z" fill="#5B8DF0" p-id="3479"></path><path d="M650.666667 512h-128v64h85.333333a32 32 0 0 1 0 64h-85.333333v74.666667a32 32 0 0 1-64 0V640h-85.333334a32 32 0 0 1 0-64h85.333334v-64h-128a32 32 0 0 1 0-64h95.146666l-35.626666-61.674667a26.709333 26.709333 0 0 1 46.293333-26.666666l37.333333 64.661333a26.496 26.496 0 0 1 0.853334 23.68h42.666666a26.496 26.496 0 0 1 0.853334-23.68l37.333333-64.661333a26.709333 26.709333 0 0 1 46.293333 26.666666L566.186667 448h84.48a32 32 0 0 1 0 64z" fill="#F2A355" p-id="3480"></path></svg>