<?xml version="1.0" standalone="no"?><!DOCTYPE svg PUBLIC "-//W3C//DTD SVG 1.1//EN" "http://www.w3.org/Graphics/SVG/1.1/DTD/svg11.dtd"><svg t="1545229560412" class="icon" style="" viewBox="0 0 1024 1024" version="1.1" xmlns="http://www.w3.org/2000/svg" p-id="3362" xmlns:xlink="http://www.w3.org/1999/xlink" width="200" height="200"><defs><style type="text/css"></style></defs><path d="M949.373861 1.723248 74.626139 1.723248c-40.264029 0-72.903403 32.067346-72.903403 71.620178l0 877.314173c0 17.202801 6.178723 32.982182 16.468067 45.331441l56.435337-90.094948 72.879867 116.382661 72.903403-116.382661 72.90238 116.382661 72.879867-116.382661 72.903403 116.382661 72.904427-116.382661 72.90545 116.382661 72.876798-116.382661 72.904427 116.382661 72.904427-116.382661 72.90238 116.382661 72.880891-116.382661 56.435337 90.094948c10.289344-12.347213 16.46909-28.129664 16.46909-45.331441L1022.278287 73.343425C1022.278287 33.790594 989.635843 1.723248 949.373861 1.723248zM391.356804 645.748167c-22.598694 22.99676-55.536874 38.569434-98.768491 46.692439l0 70.824045c-10.214642 2.440585-20.679995 3.66139-31.343869 3.66139-10.714016 0-21.403472-1.220804-32.089859-3.66139l0-64.706721-5.830799 0c-16.046464 0-30.372751-0.409322-43.00342-1.218758-12.657274-0.823761-24.665773-2.142803-36.07973-3.975545-11.43647-1.830695-22.722514-4.160763-33.910321-7.024997-11.18883-2.841721-22.847357-6.303566-34.982746-10.365068 1.444908-11.809977 4.112668-23.707958 8.022721-35.71748 3.888564-11.996219 8.497535-24.517393 13.852496-37.547151 20.406772 6.927783 39.591717 11.710716 57.582463 14.350846 17.96414 2.654456 37.173644 3.961218 57.58144 3.961218 30.622438 0 54.31607-4.361331 71.084988-13.118785 16.769942-8.746198 25.139563-22.896476 25.139563-42.431392 0-9.765411-2.316765-17.801435-6.927783-24.119327-4.608971-6.302543-10.438747-11.486612-17.492396-15.557324-7.05058-4.062526-14.947434-7.525394-23.692608-10.379395-8.746198-2.837628-17.243733-5.89322-25.515117-9.156544l-38.618553-14.039761c-16.046464-5.705955-30.622438-11.698436-43.753503-18.014282-13.106506-6.303566-24.416086-13.82896-33.883715-22.585391-9.493212-8.746198-16.769942-19.023262-21.877263-30.833239-5.106298-11.785417-7.650237-26.248827-7.650237-43.341111 0-36.626175 12.385075-65.515133 37.174668-86.683245 24.791639-21.167089 59.049884-33.986045 102.778828-38.45687l0-64.719001c10.213619-2.442632 20.654412-3.66139 31.343869-3.66139 10.214642 0 20.904099 1.218758 32.089859 3.66139l0 62.873979c19.410072 1.220804 38.146808 3.575432 56.110949 7.02602 17.989723 3.463891 36.924981 8.048303 56.857962 13.741979-2.917446 23.607674-10.688433 46.803979-23.321148 69.589938-7.275707-2.442632-14.700817-4.882194-22.226211-7.323802-7.549953-2.443655-15.573697-4.471848-24.069185-6.106068-8.496511-1.632173-18.088984-2.952238-28.777417-3.974521-10.714016-1.006933-22.847357-1.518586-36.45119-1.518586-8.273431 0-16.644075 0.511653-25.166169 1.518586-8.496511 1.022283-16.144702 3.164063-22.947641 6.417153-6.826476 3.2623-12.383028 7.836479-16.768919 13.728676-4.384867 5.9055-6.55223 13.541411-6.55223 22.897499 0 8.148587 1.693572 15.062044 5.082762 20.754696 3.412726 5.704932 8.023744 10.475586 13.853519 14.350846s12.408611 7.226588 19.682271 10.066263c7.30129 2.852978 14.575973 5.494131 21.877263 7.93574l43.725874 15.273868c18.48705 6.503111 35.231409 13.030781 50.304709 19.535939 15.072277 6.502088 27.806299 14.338566 38.269605 23.49511 10.438747 9.155521 18.587334 20.355607 24.417109 33.584909 5.830799 13.231349 8.745175 29.811979 8.745175 49.743938C425.241542 594.5716 413.955498 622.76164 391.356804 645.748167zM912.920624 807.426453 694.234973 807.426453c-20.132526 0-36.453237-16.033162-36.453237-35.815717 0-19.770276 16.320711-35.803437 36.453237-35.803437l218.685651 0c20.132526 0 36.453237 16.033162 36.453237 35.803437C949.373861 791.393291 933.052127 807.426453 912.920624 807.426453zM912.920624 628.382661 584.904938 628.382661c-20.134573 0-36.453237-16.033162-36.453237-35.803437 0-19.784602 16.318664-35.817764 36.453237-35.817764l328.015685 0c20.132526 0 36.453237 16.033162 36.453237 35.817764C949.373861 612.349499 933.052127 628.382661 912.920624 628.382661zM912.920624 449.336822 584.904938 449.336822c-20.134573 0-36.453237-16.034185-36.453237-35.803437 0-19.782555 16.318664-35.815717 36.453237-35.815717l328.015685 0c20.132526 0 36.453237 16.033162 36.453237 35.815717C949.373861 433.302637 933.052127 449.336822 912.920624 449.336822zM912.920624 270.289959 584.904938 270.289959c-20.134573 0-36.453237-16.033162-36.453237-35.802414 0-19.782555 16.318664-35.81674 36.453237-35.81674l328.015685 0c20.132526 0 36.453237 16.034185 36.453237 35.81674C949.373861 254.256798 933.052127 270.289959 912.920624 270.289959z" p-id="3363"></path></svg>