<?xml version="1.0" standalone="no"?><!DOCTYPE svg PUBLIC "-//W3C//DTD SVG 1.1//EN" "http://www.w3.org/Graphics/SVG/1.1/DTD/svg11.dtd"><svg t="1545229487027" class="icon" style="" viewBox="0 0 1024 1024" version="1.1" xmlns="http://www.w3.org/2000/svg" p-id="3246" xmlns:xlink="http://www.w3.org/1999/xlink" width="200" height="200"><defs><style type="text/css"></style></defs><path d="M513.815 18.773c-270.308 0-490.223 219.915-490.223 490.223s219.915 490.223 490.223 490.223c270.308 0 490.223-219.915 490.223-490.223 0-270.308-219.915-490.223-490.223-490.223zM748.462 724.5c0 9.53-8.479 17.476-17.476 17.476h-58.791c-8.997 0-17.995-2.116-26.474-5.297-15.878-6.895-28.071-19.060-34.953-35.499-3.168-7.933-5.297-16.944-5.297-25.941v-154.092h-184.812v1.052c-1.584 18.541-4.246 36.017-6.881 52.443-4.246 21.709-10.595 41.82-19.060 61.426-16.944 36.55-42.912 66.205-74.684 93.73-3.7 3.168-7.933 4.779-12.711 4.246-4.765-0.532-8.997-3.168-13.244-7.947-5.83-6.881-4.765-17.995 2.649-24.357 28.071-23.307 50.313-49.78 65.14-81.565 7.413-16.944 13.244-34.953 16.944-54.013 2.649-13.776 4.779-28.604 5.83-45.015h-51.897c-5.83 0-10.595-3.168-14.308-7.413-3.168-4.779-4.246-10.581-2.116-15.892l54.545-151.456h-70.423c-9.53 0-17.476-7.947-17.476-17.476v-0.532c0-9.53 7.947-17.462 17.476-17.462h194.874v-30.188c0-9.53 7.947-17.476 17.476-17.476h0.532c10.049 0 17.462 7.947 17.462 17.476v30.188h195.953c9.53 0 16.944 7.933 16.944 17.462v0.532c0 9.53-7.413 17.476-16.944 17.476h-317.207c0 1.584 0 3.168-0.532 4.765l-48.182 133.98h281.737c8.479 0 15.36-2.649 21.19-8.465 6.349-5.83 9.53-13.244 9.53-22.255v-40.769c0-9.53 7.413-17.476 17.462-17.476h0.532c9.53 0 17.476 7.947 17.476 17.476v40.769c0 9.53-1.584 18.009-5.297 25.955-6.895 16.412-19.060 28.59-34.966 35.485-8.465 3.168-16.944 5.297-25.941 5.297h-1.052v154.106c0 8.997 3.168 15.892 8.997 21.723s12.711 8.997 21.709 8.997h58.791c8.997 0 17.476 7.413 17.476 17.476v1.052z" p-id="3247"></path></svg>