<?xml version="1.0" standalone="no"?><!DOCTYPE svg PUBLIC "-//W3C//DTD SVG 1.1//EN" "http://www.w3.org/Graphics/SVG/1.1/DTD/svg11.dtd"><svg t="1545742925250" class="icon" style="" viewBox="0 0 1024 1024" version="1.1" xmlns="http://www.w3.org/2000/svg" p-id="2519" xmlns:xlink="http://www.w3.org/1999/xlink" width="200" height="200"><defs><style type="text/css"></style></defs><path d="M920.702356 374.399085c-0.001023-8.173147 0.547469-16.457834-0.548492-24.502044-4.585435-33.634028-28.500101-48.39522-59.487859-35.18536-17.924231 7.643074-34.223452 19.042705-51.436486 28.418236-20.337187 11.078313-34.154891 25.967418-28.621874 51.02 5.088902 23.036669 21.971407 30.583552 43.733037 31.346939 4.246721 0.148379 8.390088 3.269463 12.656251 5.050016 0 102.072747 0 202.831568 0 304.940131-66.723657 34.041304-131.869377 67.277266-195.633632 99.80817-64.485687-33.796734-125.013225-66.145489-186.101535-97.399307-102.989629-52.691059-67.921949-52.18043-167.718863-0.26606-31.555693 16.414855-62.758346 33.504068-103.591333 55.351656 0-93.88732 0.589424-177.091324-0.272199-260.279978-0.378623-36.5658-2.784416-70.417793 40.929178-88.647993 21.99699-9.17394 25.116027-36.926004 13.227256-54.788837-12.939707-19.437701-31.963992-22.620184-51.813063-14.048971-17.898649 7.730055-34.111912 19.267832-51.548026 28.185946-23.008017 11.765975-31.925107 29.873378-31.797194 55.617715 0.64673 129.177058-0.284479 258.367419 0.554632 387.54243 0.356111 54.701856 26.165939 68.63417 76.269058 42.395576 53.569056-28.05087 107.221-56.06797 159.493527-86.408999 22.466688-13.042037 40.011272-13.482059 62.990636-0.692778 67.101257 37.334303 136.12633 71.204715 203.468065 108.123556 25.721825 14.103206 47.323818 13.675464 73.210395-0.385786 66.037019-35.870975 133.021619-70.114894 200.666252-102.860692 30.593785-14.809287 42.416042-35.276435 41.980113-69.321832C919.760914 616.425328 920.723845 495.405043 920.702356 374.399085z" p-id="2520"></path><path d="M477.759151 610.844216c25.535583 24.327058 42.170448 23.983227 67.99665-0.462534 58.477856-55.354725 110.818945-116.197442 143.308917-190.654224 14.760169-33.824363 21.940708-70.949912 32.559557-106.58041-4.344958-106.027825-75.18026-189.922561-178.809455-206.841905-98.749048-16.120143-195.157795 42.508139-226.312352 138.340765-17.450441 53.673433-11.594059 106.58041 9.435906 157.950382C359.415836 484.362546 414.661068 550.734186 477.759151 610.844216zM517.465478 187.5577c70.225411 3.0208 124.981503 65.343217 115.767654 135.939065-9.383718 71.895447-47.925522 130.937145-92.483344 185.709609-15.413038 18.944468-38.09155 17.682731-56.634882 2.38635-39.792285-32.825616-94.278223-147.944494-94.54633-199.753463C389.197116 239.573377 445.892373 184.481641 517.465478 187.5577z" p-id="2521"></path></svg>