<?xml version="1.0" standalone="no"?><!DOCTYPE svg PUBLIC "-//W3C//DTD SVG 1.1//EN" "http://www.w3.org/Graphics/SVG/1.1/DTD/svg11.dtd"><svg t="1545229661891" class="icon" style="" viewBox="0 0 1024 1024" version="1.1" xmlns="http://www.w3.org/2000/svg" p-id="4342" xmlns:xlink="http://www.w3.org/1999/xlink" width="200" height="200"><defs><style type="text/css"></style></defs><path d="M512 796.672 210.944 796.672c0-59.392 10.24-100.352 59.392-118.784s112.64-40.96 149.504-71.68c40.96-34.816 30.72-34.816 20.48-47.104-14.336-16.384-16.384-57.344-16.384-57.344-43.008-12.288-32.768-81.92-22.528-81.92s10.24-4.096 4.096-40.96c-8.192-47.104-4.096-71.68 18.432-100.352S512 245.76 512 245.76l0 0c0 0 65.536 4.096 88.064 32.768s26.624 53.248 18.432 100.352c-6.144 36.864-6.144 40.96 4.096 40.96s18.432 69.632-22.528 81.92c0 0-2.048 40.96-16.384 57.344-10.24 12.288-20.48 12.288 20.48 47.104 36.864 30.72 100.352 55.296 149.504 71.68s59.392 59.392 59.392 118.784L512 796.672 512 796.672z" p-id="4343"></path><path d="M835.584 765.952l98.304 0c0-43.008-8.192-75.776-45.056-88.064s-83.968-30.72-110.592-53.248c-30.72-26.624-22.528-26.624-14.336-34.816 10.24-12.288 12.288-43.008 12.288-43.008 30.72-8.192 24.576-59.392 16.384-59.392s-8.192-2.048-2.048-30.72c6.144-34.816 4.096-53.248-14.336-73.728-16.384-22.528-65.536-24.576-65.536-24.576l0 0c0 0-49.152 2.048-65.536 24.576-4.096 4.096-6.144 10.24-10.24 14.336 0 0 18.432 10.24 20.48 30.72 2.048 18.432 2.048 36.864-8.192 63.488s-14.336 40.96 8.192 61.44c12.288 10.24 4.096 55.296 4.096 55.296s57.344 30.72 118.784 51.2C841.728 679.936 835.584 765.952 835.584 765.952z" p-id="4344"></path><path d="M188.416 765.952 90.112 765.952c0-43.008 8.192-75.776 45.056-88.064s83.968-30.72 110.592-53.248c30.72-26.624 22.528-26.624 14.336-34.816-10.24-12.288-12.288-43.008-12.288-43.008-30.72-8.192-24.576-59.392-16.384-59.392s8.192-2.048 2.048-30.72c-6.144-34.816-4.096-53.248 14.336-73.728 16.384-22.528 65.536-24.576 65.536-24.576l0 0c0 0 49.152 2.048 65.536 24.576 4.096 4.096 6.144 10.24 10.24 14.336 0 0-18.432 10.24-20.48 30.72-2.048 18.432-2.048 36.864 8.192 63.488s14.336 40.96-8.192 61.44c-12.288 10.24-4.096 55.296-4.096 55.296s-57.344 30.72-118.784 51.2C182.272 679.936 188.416 765.952 188.416 765.952z" p-id="4345"></path></svg>