<?xml version="1.0" standalone="no"?><!DOCTYPE svg PUBLIC "-//W3C//DTD SVG 1.1//EN" "http://www.w3.org/Graphics/SVG/1.1/DTD/svg11.dtd"><svg t="1545229652878" class="icon" style="" viewBox="0 0 1024 1024" version="1.1" xmlns="http://www.w3.org/2000/svg" p-id="4225" xmlns:xlink="http://www.w3.org/1999/xlink" width="200" height="200"><defs><style type="text/css"></style></defs><path d="M693.76 929.28h-550.4c-17.92 0-38.4-7.68-48.64-23.04-12.8-15.36-17.92-33.28-15.36-51.2l10.24-74.24c2.56-23.04 17.92-40.96 38.4-51.2 35.84-15.36 99.84-40.96 171.52-58.88-35.84-40.96-66.56-107.52-66.56-222.72 0-174.08 102.4-209.92 186.88-209.92s186.88 35.84 186.88 209.92c0 115.2-28.16 184.32-64 222.72 71.68 15.36 133.12 40.96 168.96 58.88 20.48 10.24 35.84 28.16 38.4 51.2l10.24 74.24c2.56 17.92-2.56 38.4-15.36 51.2-15.36 15.36-33.28 23.04-51.2 23.04z m-276.48-637.44c-94.72 0-135.68 48.64-135.68 158.72 0 140.8 46.08 194.56 87.04 215.04 10.24 5.12 15.36 15.36 12.8 28.16-2.56 10.24-10.24 20.48-20.48 20.48-89.6 12.8-179.2 48.64-215.04 64-5.12 2.56-7.68 5.12-7.68 10.24l-10.24 74.24c0 5.12 2.56 10.24 2.56 12.8 2.56 2.56 5.12 5.12 10.24 5.12h550.4c5.12 0 10.24-2.56 10.24-5.12 2.56-2.56 5.12-5.12 2.56-12.8l-10.24-74.24c0-5.12-2.56-10.24-7.68-10.24-33.28-15.36-122.88-51.2-212.48-64-10.24-2.56-20.48-10.24-20.48-20.48s2.56-23.04 12.8-28.16c56.32-28.16 84.48-102.4 84.48-215.04 2.56-110.08-38.4-158.72-133.12-158.72z" p-id="4226"></path><path d="M883.2 801.28h-69.12c-15.36 0-25.6-10.24-25.6-25.6s10.24-25.6 25.6-25.6h69.12c5.12 0 10.24-2.56 10.24-5.12 2.56-2.56 5.12-5.12 2.56-12.8l-10.24-74.24c0-5.12-5.12-10.24-7.68-10.24-33.28-15.36-122.88-51.2-212.48-64-10.24-2.56-20.48-10.24-20.48-20.48s2.56-23.04 12.8-28.16c56.32-28.16 84.48-102.4 84.48-215.04 0-110.08-40.96-158.72-135.68-158.72-48.64 0-84.48 12.8-104.96 40.96-7.68 10.24-25.6 12.8-35.84 5.12-10.24-7.68-12.8-25.6-5.12-35.84 30.72-40.96 81.92-61.44 145.92-61.44 84.48 0 186.88 35.84 186.88 209.92 0 115.2-28.16 184.32-64 222.72 71.68 15.36 133.12 40.96 168.96 58.88 20.48 10.24 35.84 28.16 38.4 51.2l10.24 74.24c2.56 17.92-2.56 38.4-15.36 53.76s-30.72 20.48-48.64 20.48z" p-id="4227"></path></svg>