<?xml version="1.0" standalone="no"?><!DOCTYPE svg PUBLIC "-//W3C//DTD SVG 1.1//EN" "http://www.w3.org/Graphics/SVG/1.1/DTD/svg11.dtd"><svg t="1545229375422" class="icon" style="" viewBox="0 0 1024 1024" version="1.1" xmlns="http://www.w3.org/2000/svg" p-id="1678" xmlns:xlink="http://www.w3.org/1999/xlink" width="200" height="200"><defs><style type="text/css"></style></defs><path d="M172.778666 165.802667l184.021333 0 0 184.021333-184.021333 0 0-184.021333Z" p-id="1679"></path><path d="M418.133333 165.802667l184.021333 0 0 184.021333-184.021333 0 0-184.021333Z" p-id="1680"></path><path d="M663.488 165.802667l184.021333 0 0 184.021333-184.021333 0 0-184.021333Z" p-id="1681"></path><path d="M172.778666 411.157333l184.021333 0 0 184.021333-184.021333 0 0-184.021333Z" p-id="1682"></path><path d="M418.133333 411.157333l184.021333 0 0 184.021333-184.021333 0 0-184.021333Z" p-id="1683"></path><path d="M172.778666 656.490667l184.021333 0 0 184.021333-184.021333 0 0-184.021333Z" p-id="1684"></path><path d="M727.722666 840.512 847.509333 840.512 847.509333 718.784 847.509333 656.490667 847.509333 411.157333 663.488 411.157333 663.488 656.490667 418.133333 656.490667 418.133333 840.512 663.488 840.512Z" p-id="1685"></path><path d="M925.845333 0 94.293333 0C40.938666 0 1.472 43.264 1.472 96.661333l0 828.010667c0 53.376 43.264 96.661333 96.661333 96.661333l827.733333 0c53.397333 0 96.661333-43.285333 96.661333-96.661333L1022.528 90.965333C1022.506666 37.568 979.242666 0 925.845333 0zM908.821333 907.626667 115.136 907.626667 115.136 113.706667l793.685333 0L908.821333 907.626667z" p-id="1686"></path></svg>